<svg width="27" height="27" viewBox="0 0 27 27" fill="none" xmlns="http://www.w3.org/2000/svg">
<path fill-rule="evenodd" clip-rule="evenodd" d="M13.5 0C9.83362 0 9.37463 0.01575 7.93463 0.081C3.03188 0.306 0.307125 3.02625 0.082125 7.9335C0.01575 9.37463 0 9.83362 0 13.5C0 17.1664 0.01575 17.6265 0.081 19.0665C0.306 23.9692 3.02625 26.694 7.9335 26.919C9.37463 26.9843 9.83362 27 13.5 27C17.1664 27 17.6265 26.9843 19.0665 26.919C23.9648 26.694 26.6963 23.9737 26.9179 19.0665C26.9843 17.6265 27 17.1664 27 13.5C27 9.83362 26.9843 9.37463 26.919 7.93463C26.6985 3.03638 23.9749 0.307125 19.0676 0.082125C17.6265 0.01575 17.1664 0 13.5 0ZM13.5 2.43359C17.1045 2.43359 17.532 2.44709 18.9563 2.51234C22.6148 2.67884 24.3236 4.41472 24.4901 8.04622C24.5554 9.46934 24.5678 9.89684 24.5678 13.5013C24.5678 17.107 24.5543 17.5333 24.4901 18.9565C24.3225 22.5846 22.6181 24.3238 18.9563 24.4903C17.532 24.5556 17.1068 24.5691 13.5 24.5691C9.8955 24.5691 9.468 24.5556 8.04488 24.4903C4.37738 24.3227 2.6775 22.579 2.511 18.9553C2.44575 17.5322 2.43225 17.1058 2.43225 13.5002C2.43225 9.89572 2.44688 9.46934 2.511 8.04509C2.67863 4.41472 4.383 2.67772 8.04488 2.51122C9.46913 2.44709 9.8955 2.43359 13.5 2.43359ZM6.56775 13.4996C6.56775 9.67126 9.67162 6.56738 13.5 6.56738C17.3284 6.56738 20.4322 9.67126 20.4322 13.4996C20.4322 17.3291 17.3284 20.433 13.5 20.433C9.67162 20.433 6.56775 17.328 6.56775 13.4996ZM13.5 18C11.0149 18 9 15.9862 9 13.5C9 11.0149 11.0149 9 13.5 9C15.9851 9 18 11.0149 18 13.5C18 15.9862 15.9851 18 13.5 18ZM19.0856 6.2948C19.0856 5.40043 19.8112 4.6748 20.7067 4.6748C21.6011 4.6748 22.3256 5.40043 22.3256 6.2948C22.3256 7.18918 21.6011 7.9148 20.7067 7.9148C19.8112 7.9148 19.0856 7.18918 19.0856 6.2948Z" fill="white"/>
</svg>
